<?xml version="1.0" standalone="no"?>
<!DOCTYPE svg PUBLIC "-//W3C//DTD SVG 20010904//EN"
 "http://www.w3.org/TR/2001/REC-SVG-20010904/DTD/svg10.dtd">
<svg version="1.0" xmlns="http://www.w3.org/2000/svg"
 width="796.000000pt" height="796.000000pt" viewBox="0 0 796.000000 796.000000"
 preserveAspectRatio="xMidYMid meet">

<g transform="translate(0.000000,796.000000) scale(0.100000,-0.100000)"
fill="#000000" stroke="none">
<path d="M0 3980 l0 -3980 3980 0 3980 0 0 3980 0 3980 -3980 0 -3980 0 0
-3980z m3301 1880 c89 -17 206 -79 275 -145 68 -66 136 -190 154 -282 40 -201
-91 -457 -280 -550 -115 -56 -160 -66 -268 -61 -91 4 -103 7 -184 48 -108 54
-175 115 -222 201 -57 104 -76 171 -76 265 0 136 64 302 148 381 68 65 183
126 277 146 38 9 123 7 176 -3z m1650 -29 c147 -62 248 -162 309 -306 113
-272 -30 -566 -329 -675 -221 -81 -477 10 -588 208 -61 108 -82 183 -83 287 0
98 9 141 47 225 53 117 159 216 283 265 115 45 248 43 361 -4z m-786 -1159
c63 -30 112 -73 150 -132 32 -49 74 -89 102 -96 27 -7 73 28 73 56 0 9 6 25
14 35 12 17 16 17 79 2 85 -22 268 -22 357 -1 36 8 115 40 175 71 99 51 116
57 170 56 163 -3 316 -116 407 -300 l43 -87 0 -202 0 -203 23 -6 c13 -3 134
-5 268 -4 135 0 248 -1 251 -4 14 -14 -15 -49 -97 -116 -97 -80 -261 -172
-479 -268 -69 -30 -131 -59 -138 -65 -16 -13 -354 -150 -524 -213 -81 -29
-160 -60 -176 -68 -36 -19 -514 -170 -608 -193 -137 -33 -427 -29 -550 6 -16
5 -68 18 -115 30 -47 12 -116 33 -155 47 -38 13 -108 36 -155 49 -116 34 -610
225 -724 280 -16 8 -33 14 -38 14 -5 0 -64 27 -131 59 -67 33 -165 80 -217
105 -121 57 -249 128 -321 177 -63 42 -169 136 -169 150 0 4 129 8 286 8 157
0 289 3 294 6 5 3 4 20 -1 38 -5 17 -10 100 -11 182 -2 125 0 159 16 204 47
135 161 277 261 326 55 27 155 55 195 55 14 0 50 -14 80 -30 174 -96 258 -120
414 -120 104 0 249 17 309 36 30 9 29 -20 -3 -92 -66 -146 -82 -222 -87 -422
l-6 -183 72 3 71 3 3 200 c2 127 8 213 16 235 34 95 77 163 153 245 107 114
182 153 298 154 52 1 77 -5 125 -27z"/>
</g>
</svg>
